<svg viewBox="0 0 100 100" xmlns="http://www.w3.org/2000/svg"><path d="m82.7031209.82h-75.00175834c-4.14253898 0-7.49736256 3.35834017-7.49736256 7.50087915v48.77153905c0 4.142539 3.35834017 7.5008792 7.49736256 7.5008792h52.63626774l14.8610948 14.8610948v-14.8610948h7.5043958c4.1425389 0 7.5008791-3.3583402 7.5008791-7.5008792v-48.77153905c0-4.14253898-3.3583402-7.50087915-7.5008791-7.50087915zm-52.1474622 35.647638c-2.0712695 0-3.7486813-1.6774118-3.7486813-3.7486813 0-2.0712694 1.6774118-3.7486812 3.7486813-3.7486812 2.0712694 0 3.7486812 1.6809283 3.7486812 3.7486812s-1.6774118 3.7486813-3.7486812 3.7486813zm14.646583 0c-2.0712695 0-3.7486813-1.6774118-3.7486813-3.7486813 0-2.0712694 1.6774118-3.7486812 3.7486813-3.7486812s3.7486813 1.6809283 3.7486813 3.7486812-1.6774118 3.7486813-3.7486813 3.7486813zm14.9982417 0c-2.0712695 0-3.7486813-1.6774118-3.7486813-3.7486813 0-2.0712694 1.6774118-3.7486812 3.7486813-3.7486812s3.7486813 1.6809283 3.7486813 3.7486812-1.6774118 3.7486813-3.7486813 3.7486813z" fill="none" stroke="#fff" stroke-width="4.5" transform="translate(5 10)"/></svg>