<svg enable-background="new 0 0 512 512" viewBox="0 0 512 512" xmlns="http://www.w3.org/2000/svg"><path d="m469 493.6v-305.6c35.5-10.9 43.7-45 37.7-68.9l-31.4-117.1h-438.6l-31.5 117.3c-5.9 23.7 2.7 57.8 37.8 68.7v305.6h-41v16.4h508v-16.4zm-16.4-319.5c-22.6 0-41-18.4-41-41v-32.8h73.1l6.2 22.9c5.8 20.8-7 50.9-38.3 50.9zm-335.9-73.8h81.9v32.8c0 22.6-18.4 41-41 41s-41-18.4-41-41v-32.8zm98.3 0h82v32.8c0 22.6-18.4 41-41 41s-41-18.4-41-41zm98.4 0h81.9v32.8c0 22.6-18.4 41-41 41s-41-18.4-41-41v-32.8zm-264.1-81.9h413.5l17.6 65.5h-448.7zm-28.2 105 6.2-23.1h73.1v32.8c0 22.6-18.4 41-41 41-31.4 0-44.1-31-38.3-50.7zm275.9 370.2v-213h114.7v213zm155.6 0h-24.6v-229.4h-147.4v229.4h-221.2v-303.1c20.8 0 39.1-11.2 49.2-27.8 10 16.7 28.3 27.8 49.2 27.8 20.8 0 39.1-11.2 49.2-27.8 10 16.7 28.3 27.8 49.2 27.8 20.8 0 39.1-11.2 49.2-27.8 10 16.7 28.3 27.8 49.2 27.8 20.8 0 39.1-11.2 49.2-27.8 10 16.7 28.3 27.8 49.2 27.8v303.1z"/><path d="m83.9 469h163.9v-163.8h-163.9zm16.4-73.7h57.4v57.4h-57.4zm73.8 57.3v-57.4h57.4v57.4zm57.3-73.7h-57.4v-57.4h57.4zm-73.7-57.4v57.4h-57.4v-57.4z"/><path d="m165.9 231.4h16.4v16.4h-16.4z"/><path d="m133.1 231.4h16.4v16.4h-16.4z"/><path d="m198.6 231.4h16.4v16.4h-16.4z"/></svg>